<?xml version="1.0" encoding="utf-8"?>
<!-- Generator: Adobe Illustrator 27.1.1, SVG Export Plug-In . SVG Version: 6.00 Build 0)  -->
<svg version="1.1" id="Layer_1" xmlns="http://www.w3.org/2000/svg" xmlns:xlink="http://www.w3.org/1999/xlink" x="0px" y="0px"
	 viewBox="0 0 208.1 84.6" style="enable-background:new 0 0 208.1 84.6;" xml:space="preserve">
<style type="text/css">
	.st0{fill:#6E2A37;}
	.st1{fill:#3E5F7A;}
</style>
<g>
	<path class="st0" d="M21.8,42.3V28H10.3v14.3H3.6V8.2h6.7v13.9h11.6V8.2h6.7v34.2H21.8z"/>
	<path class="st0" d="M48.8,42.3v-2.2C48,41,47.1,41.6,46.2,42s-2.1,0.6-3.5,0.6c-2.8,0-4.9-0.7-6.4-2.2c-0.7-0.7-1.2-1.5-1.5-2.5
		c-0.4-1-0.5-2-0.5-3.1c0-1,0.2-1.9,0.5-2.8c0.4-0.9,0.9-1.6,1.6-2.3c0.7-0.7,1.6-1.2,2.7-1.6c1.1-0.4,2.3-0.6,3.8-0.6h5.9v-1.2
		c0-1.4-0.4-2.4-1.1-3s-1.9-0.9-3.6-0.9c-0.6,0-1.1,0-1.6,0.1c-0.4,0.1-0.9,0.2-1.2,0.4c-0.4,0.2-0.7,0.4-1,0.6
		c-0.3,0.3-0.6,0.6-1,1l-4-3.9c1.2-1.3,2.5-2.3,3.9-2.7c1.4-0.5,3.1-0.7,5.2-0.7c3.5,0,6.2,0.7,8,2.2s2.7,3.7,2.7,6.6v16.5H48.8z
		 M48.7,31.8h-4.9c-1.1,0-2,0.2-2.6,0.7c-0.6,0.5-0.9,1.2-0.9,2.1c0,0.9,0.3,1.6,0.9,2.1c0.6,0.5,1.5,0.8,2.7,0.8
		c0.9,0,1.6-0.1,2.2-0.2c0.6-0.1,1.2-0.5,1.7-1c0.6-0.6,0.9-1.6,0.9-3.2V31.8z"/>
	<path class="st0" d="M75.2,24.1c-0.5-0.5-1-0.8-1.4-1.1c-0.5-0.3-1.1-0.4-1.9-0.4c-0.5,0-1,0.1-1.4,0.3c-0.5,0.2-0.9,0.5-1.3,0.8
		c-0.4,0.4-0.7,0.9-0.9,1.4s-0.4,1.3-0.4,2.1v15.1h-6.2v-25h6.1v2.4c0.6-0.7,1.5-1.4,2.6-1.9S72.7,17,74,17c1.2,0,2.3,0.2,3.2,0.5
		c0.9,0.4,1.8,1,2.7,1.8L75.2,24.1z"/>
	<path class="st0" d="M104.4,29.8c0,0.9,0,1.9,0,2.9c0,1-0.1,2-0.3,2.9c-0.2,0.9-0.4,1.8-0.8,2.6c-0.4,0.8-0.8,1.6-1.4,2.2
		c-0.7,0.7-1.6,1.3-2.7,1.7c-1.1,0.4-2.2,0.6-3.4,0.6c-1.3,0-2.5-0.2-3.5-0.6c-1-0.4-1.9-1.1-2.8-2v2.4h-6V8.2h6.2v11.4
		c0.8-0.9,1.7-1.6,2.7-1.9c1-0.4,2.1-0.6,3.4-0.6c1.2,0,2.4,0.2,3.4,0.6c1.1,0.4,2,1,2.7,1.7c0.6,0.6,1.1,1.4,1.4,2.2
		c0.4,0.8,0.6,1.7,0.8,2.6c0.2,0.9,0.3,1.9,0.3,2.9C104.4,27.9,104.4,28.9,104.4,29.8z M98.2,29.8c0-1,0-2-0.1-2.8
		c-0.1-0.9-0.3-1.6-0.6-2.3c-0.3-0.6-0.7-1.1-1.3-1.5c-0.6-0.4-1.3-0.6-2.2-0.6s-1.7,0.2-2.2,0.6c-0.6,0.4-1,0.9-1.3,1.5
		c-0.3,0.6-0.5,1.4-0.6,2.3c-0.1,0.9-0.1,1.8-0.1,2.8c0,1,0,2,0.1,2.9c0.1,0.9,0.3,1.6,0.6,2.3c0.3,0.6,0.7,1.1,1.3,1.5
		c0.6,0.4,1.3,0.6,2.2,0.6s1.7-0.2,2.2-0.6c0.6-0.4,1-0.9,1.3-1.5c0.3-0.6,0.5-1.4,0.6-2.3C98.1,31.8,98.2,30.8,98.2,29.8z"/>
	<path class="st0" d="M130.5,29.8c0,2.3-0.2,4.2-0.6,5.7c-0.4,1.5-1.1,2.9-2.3,4.1c-0.8,0.8-1.8,1.6-3.1,2.2
		c-1.3,0.6-2.8,0.9-4.7,0.9s-3.4-0.3-4.7-0.9c-1.3-0.6-2.3-1.3-3-2.2c-1.1-1.2-1.9-2.5-2.3-4.1c-0.4-1.5-0.6-3.4-0.6-5.7
		c0-2.3,0.2-4.2,0.6-5.7c0.4-1.5,1.1-2.8,2.3-4c0.8-0.8,1.8-1.6,3-2.2c1.3-0.6,2.8-0.9,4.7-0.9s3.4,0.3,4.7,0.9
		c1.3,0.6,2.3,1.3,3.1,2.2c1.1,1.2,1.9,2.5,2.3,4C130.3,25.6,130.5,27.5,130.5,29.8z M124.2,29.8c0-1.3-0.1-2.5-0.2-3.5
		c-0.2-1-0.6-1.9-1.2-2.5c-0.7-0.7-1.7-1.1-2.9-1.1c-1.2,0-2.1,0.4-2.9,1.1c-0.6,0.6-1,1.5-1.2,2.5c-0.2,1-0.2,2.2-0.2,3.5
		c0,1.3,0.1,2.5,0.2,3.6c0.2,1.1,0.6,1.9,1.2,2.5c0.7,0.7,1.7,1.1,2.9,1.1c1.2,0,2.2-0.4,2.9-1.1c0.6-0.6,1-1.5,1.2-2.5
		C124.1,32.3,124.2,31.1,124.2,29.8z"/>
	<path class="st0" d="M150,24.1c-0.5-0.5-1-0.8-1.4-1.1c-0.5-0.3-1.1-0.4-1.9-0.4c-0.5,0-1,0.1-1.4,0.3c-0.5,0.2-0.9,0.5-1.3,0.8
		c-0.4,0.4-0.7,0.9-0.9,1.4s-0.4,1.3-0.4,2.1v15.1h-6.2v-25h6.1v2.4c0.6-0.7,1.5-1.4,2.6-1.9s2.4-0.8,3.7-0.8c1.2,0,2.3,0.2,3.2,0.5
		c0.9,0.4,1.8,1,2.7,1.8L150,24.1z"/>
</g>
<g>
	<path class="st1" d="M3.6,44.6h13.3c1.4,0,2.7,0.2,3.9,0.5c1.2,0.4,2.2,0.9,3.1,1.7c1,0.8,1.8,1.8,2.4,3.1c0.7,1.3,1,2.7,1,4.2
		c0,2.2-0.6,4.2-1.8,5.8s-2.8,2.9-4.9,3.6l7.9,15.2h-6.1l-7.1-14.6H8.8v14.6H3.6V44.6z M8.8,59.6h7.8c2,0,3.4-0.5,4.4-1.6
		s1.4-2.4,1.4-3.8c0-0.9-0.2-1.7-0.5-2.3c-0.3-0.7-0.7-1.2-1.3-1.6c-0.5-0.4-1-0.6-1.6-0.8s-1.3-0.3-2.2-0.3H8.8V59.6z"/>
	<path class="st1" d="M36.1,68.4c0,2,0.6,3.5,1.7,4.5c1.1,1,2.5,1.5,4.2,1.5c0.2,0,0.4,0,0.6,0c0.2,0,0.4,0,0.6-0.1
		c0.7-0.1,1.5-0.4,2.2-0.8c0.7-0.4,1.4-0.9,2-1.5l3.6,3c-1.2,1.4-2.5,2.4-4.1,3C45.3,78.7,43.7,79,42,79c-0.3,0-0.6,0-0.9,0
		c-0.3,0-0.6,0-0.9-0.1c-2.2-0.3-4.3-1.3-6.1-3c-1.9-1.7-2.8-4.8-2.8-9.2c0-4.2,0.9-7.3,2.7-9.1s3.7-3,5.9-3.3
		c0.3,0,0.5-0.1,0.7-0.1c0.2,0,0.5,0,0.7,0c2.7,0,5,0.9,7,2.8c2,1.9,3,4.4,3,7.5v4H36.1z M46.4,64.4c-0.1-1.9-0.6-3.3-1.5-4.2
		s-2.2-1.4-3.6-1.4c-1.4,0-2.6,0.5-3.6,1.4s-1.5,2.4-1.5,4.2H46.4z"/>
	<path class="st1" d="M57.2,71.3c1.1,1,2.2,1.8,3.4,2.3c1.2,0.5,2.6,0.8,4.3,0.8c1.4,0,2.6-0.3,3.5-0.8c0.9-0.5,1.3-1.3,1.3-2.3
		c0-0.9-0.3-1.5-0.9-1.8s-1.3-0.5-2.1-0.6l-4.3-0.4c-2-0.2-3.7-0.8-5-2c-1.3-1.2-2-2.8-2-4.9c0-2.5,0.9-4.3,2.6-5.6
		c1.7-1.3,3.9-1.9,6.5-1.9c2.1,0,4,0.3,5.5,0.9c1.5,0.6,2.9,1.4,4.1,2.4l-3,3.6c-1-0.7-2-1.2-3-1.6c-1-0.4-2.2-0.6-3.5-0.6
		c-1.6,0-2.7,0.3-3.3,0.8c-0.6,0.6-0.9,1.3-0.9,2.1c0,0.5,0.2,1,0.7,1.5s1.3,0.7,2.5,0.8l4,0.3c2.5,0.2,4.3,0.9,5.4,2.3
		c1.1,1.4,1.6,3,1.6,5c0,2.4-1,4.2-2.9,5.5S67.3,79,64.5,79c-2,0-3.8-0.4-5.6-1.1c-1.8-0.7-3.5-1.8-5.1-3.3L57.2,71.3z"/>
	<path class="st1" d="M83.2,68.4c0,2,0.6,3.5,1.7,4.5c1.1,1,2.5,1.5,4.2,1.5c0.2,0,0.4,0,0.6,0c0.2,0,0.4,0,0.6-0.1
		c0.7-0.1,1.5-0.4,2.2-0.8c0.7-0.4,1.4-0.9,2-1.5l3.6,3c-1.2,1.4-2.5,2.4-4.1,3c-1.5,0.6-3.1,0.9-4.7,0.9c-0.3,0-0.6,0-0.9,0
		c-0.3,0-0.6,0-0.9-0.1c-2.2-0.3-4.3-1.3-6.1-3c-1.9-1.7-2.8-4.8-2.8-9.2c0-4.2,0.9-7.3,2.7-9.1s3.7-3,5.9-3.3
		c0.3,0,0.5-0.1,0.7-0.1c0.2,0,0.5,0,0.7,0c2.7,0,5,0.9,7,2.8c2,1.9,3,4.4,3,7.5v4H83.2z M93.5,64.4c-0.1-1.9-0.6-3.3-1.5-4.2
		s-2.2-1.4-3.6-1.4c-1.4,0-2.6,0.5-3.6,1.4s-1.5,2.4-1.5,4.2H93.5z"/>
	<path class="st1" d="M116.3,76.6L116.3,76.6c-0.6,0.8-1.3,1.4-2.2,1.8s-2.2,0.6-3.9,0.6c-2.7,0-4.8-0.7-6.3-2.1
		c-1.5-1.4-2.3-3.2-2.3-5.3c0-2,0.7-3.6,2-5.1c1.3-1.4,3.3-2.1,5.9-2.1h6.8v-2.5c0-1.2-0.4-2-1.2-2.4c-0.8-0.5-2.1-0.7-3.8-0.7
		c-1.3,0-2.3,0.1-2.9,0.4c-0.7,0.3-1.2,0.8-1.7,1.5l-3.8-2.9c0.9-1.3,2.1-2.2,3.4-2.8c1.4-0.5,3-0.8,4.8-0.8c3,0,5.4,0.6,7.3,1.8
		c1.9,1.2,2.8,3.3,2.8,6.3v16.6h-4.9V76.6z M116.3,68.4h-5.9c-1.4,0-2.5,0.3-3.2,0.8c-0.7,0.5-1,1.2-1,2.1c0,0.8,0.4,1.5,1.1,2.1
		c0.7,0.6,1.9,0.9,3.6,0.9c2,0,3.5-0.2,4.3-0.7s1.2-1.6,1.2-3.5V68.4z"/>
	<path class="st1" d="M127.5,54.4h4.9V57h0.1c0.8-1,1.7-1.7,2.8-2.2c1.1-0.5,2.3-0.7,3.6-0.7c1,0,1.9,0.2,2.7,0.5s1.6,0.8,2.4,1.4
		l-3.6,4.2c-0.3-0.2-0.5-0.4-0.7-0.5c-0.2-0.1-0.4-0.3-0.7-0.4c-0.3-0.1-0.6-0.2-0.9-0.2c-0.3-0.1-0.6-0.1-1-0.1
		c-1.2,0-2.3,0.4-3.3,1.2c-1,0.8-1.5,2.1-1.5,3.9v14.6h-4.9V54.4z"/>
	<path class="st1" d="M163.2,74.8c-1.1,1.2-2.3,2.2-3.8,3s-3.1,1.2-5,1.2c-2.8,0-5.4-1-7.6-2.9c-2.3-1.9-3.4-5.1-3.4-9.5
		c0-4.5,1.1-7.7,3.4-9.6c2.3-1.9,4.8-2.9,7.6-2.9c1.9,0,3.5,0.4,5,1.2s2.7,1.8,3.8,3l-3.6,3.2c-0.6-0.7-1.3-1.3-2.2-1.8
		c-0.8-0.5-1.8-0.7-2.8-0.7c-2,0-3.5,0.6-4.7,1.8c-1.1,1.2-1.7,3.1-1.7,5.8c0,2.6,0.6,4.5,1.7,5.7c1.1,1.2,2.7,1.8,4.7,1.8
		c1,0,2-0.2,2.8-0.7c0.8-0.5,1.6-1.1,2.2-1.8L163.2,74.8z"/>
	<path class="st1" d="M166.7,44.6h4.9V57h0.1c0.8-1,1.7-1.7,2.8-2.2c1.1-0.5,2.3-0.7,3.6-0.7c0.2,0,0.4,0,0.6,0c0.2,0,0.4,0,0.6,0.1
		c1.7,0.3,3.3,1.1,4.7,2.5c1.4,1.4,2.1,3.3,2.1,5.8v16.2h-4.9V64.3c0-1.7-0.5-3-1.4-3.9c-0.9-0.9-2.1-1.4-3.4-1.4s-2.5,0.5-3.5,1.4
		c-0.9,0.9-1.4,2.2-1.4,3.9v14.5h-4.9V44.6z"/>
</g>
</svg>
