<svg xmlns="http://www.w3.org/2000/svg" xmlns:xlink="http://www.w3.org/1999/xlink" aria-hidden="true" role="img" fill="#67C7C5" width="40" height="40" viewBox="0 0 64 64" preserveAspectRatio="xMidYMid meet">
<g>
	<path d="M3.41,33.74l0.06,0.51c0.34,2.98,1.37,12.06,11.85,12.06c3.51,0,6.55-1.31,8.56-3.68
		c1.96-2.31,2.77-5.47,2.23-8.66c-0.36-2.11-1.03-3.78-1.68-5.39c-0.89-2.22-1.74-4.31-1.74-7.82c0-2.88,0.9-9.59,9.23-9.59
		c8.33,0,9.23,6.7,9.23,9.59c0,3.51-0.84,5.6-1.74,7.82c-0.65,1.61-1.32,3.27-1.68,5.39c-0.54,3.19,0.27,6.35,2.23,8.66
		c2.01,2.37,5.04,3.68,8.56,3.68c10.48,0,11.51-9.08,11.85-12.06l0.06-0.51c0.29-2.64,0.54-2.64,1.56-2.64v-6.71
		c-4.83,0-7.59,2.9-8.23,8.61l-0.06,0.49c-0.49,4.31-1.32,6.11-5.19,6.11c-1.53,0-2.71-0.45-3.43-1.3c-0.68-0.8-0.95-1.97-0.74-3.22
		c0.24-1.4,0.72-2.6,1.28-4c0.99-2.46,2.23-5.52,2.23-10.33c0-8.11-4.93-16.3-15.94-16.3c-11.01,0-15.94,8.18-15.94,16.3
		c0,4.81,1.23,7.87,2.22,10.33c0.56,1.4,1.05,2.6,1.28,4c0.21,1.24-0.06,2.41-0.74,3.22c-0.72,0.85-1.91,1.3-3.43,1.3
		c-3.87,0-4.7-1.8-5.19-6.11L10.08,33c-0.63-5.71-3.4-8.61-8.23-8.61v6.71C2.88,31.09,3.12,31.09,3.41,33.74z"/>
	<rect x="27.6" y="24.37" width="3.15" height="5.48"/>
	<rect x="33.1" y="24.37" width="3.15" height="5.48"/>
	<path d="M60.11,49.66c-3.88,3.64-8.93,4.19-11.59,4.19c-5.07,0-9.52-1.96-12.54-5.53c-0.6-0.71-1.13-1.48-1.59-2.28
		l-1.01-1.79h-2.91l-1.01,1.78c-0.46,0.81-1,1.58-1.59,2.29c-3.01,3.56-7.46,5.53-12.54,5.53c-2.63,0-7.62-0.53-11.48-4.08L0,53.95
		c5.28,4.85,11.87,5.58,15.32,5.58c6.62,0,12.5-2.56,16.6-7.22c4.1,4.66,9.98,7.22,16.6,7.22c3.5,0,10.18-0.74,15.48-5.73
		L60.11,49.66z"/>
</g>
</svg>
